<svg style="vertical-align: -6.041ex;" xmlns="http://www.w3.org/2000/svg" width="56.848ex" height="13.213ex" role="img" focusable="false" viewBox="0 -3170 25126.8 5840"><g stroke="currentColor" fill="currentColor" stroke-width="0" transform="scale(1,-1)"><g data-mml-node="math"><g data-mml-node="msub"><g data-mml-node="mi"><path data-c="1D462" d="M21 287Q21 295 30 318T55 370T99 420T158 442Q204 442 227 417T250 358Q250 340 216 246T182 105Q182 62 196 45T238 27T291 44T328 78L339 95Q341 99 377 247Q407 367 413 387T427 416Q444 431 463 431Q480 431 488 421T496 402L420 84Q419 79 419 68Q419 43 426 35T447 26Q469 29 482 57T512 145Q514 153 532 153Q551 153 551 144Q550 139 549 130T540 98T523 55T498 17T462 -8Q454 -10 438 -10Q372 -10 347 46Q345 45 336 36T318 21T296 6T267 -6T233 -11Q189 -11 155 7Q103 38 103 113Q103 170 138 262T173 379Q173 380 173 381Q173 390 173 393T169 400T158 404H154Q131 404 112 385T82 344T65 302T57 280Q55 278 41 278H27Q21 284 21 287Z"></path></g><g data-mml-node="mi" transform="translate(605,-150) scale(0.707)"><path data-c="1D707" d="M58 -216Q44 -216 34 -208T23 -186Q23 -176 96 116T173 414Q186 442 219 442Q231 441 239 435T249 423T251 413Q251 401 220 279T187 142Q185 131 185 107V99Q185 26 252 26Q261 26 270 27T287 31T302 38T315 45T327 55T338 65T348 77T356 88T365 100L372 110L408 253Q444 395 448 404Q461 431 491 431Q504 431 512 424T523 412T525 402L449 84Q448 79 448 68Q448 43 455 35T476 26Q485 27 496 35Q517 55 537 131Q543 151 547 152Q549 153 557 153H561Q580 153 580 144Q580 138 575 117T555 63T523 13Q510 0 491 -8Q483 -10 467 -10Q446 -10 429 -4T402 11T385 29T376 44T374 51L368 45Q362 39 350 30T324 12T288 -4T246 -11Q199 -11 153 12L129 -85Q108 -167 104 -180T92 -202Q76 -216 58 -216Z"></path></g></g><g data-mml-node="mo" transform="translate(1359.2,0)"><path data-c="3D" d="M56 347Q56 360 70 367H707Q722 359 722 347Q722 336 708 328L390 327H72Q56 332 56 347ZM56 153Q56 168 72 173H708Q722 163 722 153Q722 140 707 133H70Q56 140 56 153Z"></path></g><g data-mml-node="mrow" transform="translate(2414.9,0)"><g data-mml-node="mo"><path data-c="23A7" d="M712 899L718 893V876V865Q718 854 704 846Q627 793 577 710T510 525Q510 524 509 521Q505 493 504 349Q504 345 504 334Q504 277 504 240Q504 -2 503 -4Q502 -8 494 -9T444 -10Q392 -10 390 -9Q387 -8 386 -5Q384 5 384 230Q384 262 384 312T383 382Q383 481 392 535T434 656Q510 806 664 892L677 899H712Z" transform="translate(0,2271)"></path><path data-c="23A9" d="M718 -893L712 -899H677L666 -893Q542 -825 468 -714T385 -476Q384 -466 384 -282Q384 3 385 5L389 9Q392 10 444 10Q486 10 494 9T503 4Q504 2 504 -239V-310V-366Q504 -470 508 -513T530 -609Q546 -657 569 -698T617 -767T661 -812T699 -843T717 -856T718 -876V-893Z" transform="translate(0,-1771)"></path><path data-c="23A8" d="M389 1159Q391 1160 455 1160Q496 1160 498 1159Q501 1158 502 1155Q504 1145 504 924Q504 691 503 682Q494 549 425 439T243 259L229 250L243 241Q349 175 421 66T503 -182Q504 -191 504 -424Q504 -600 504 -629T499 -659H498Q496 -660 444 -660T390 -659Q387 -658 386 -655Q384 -645 384 -425V-282Q384 -176 377 -116T342 10Q325 54 301 92T255 155T214 196T183 222T171 232Q170 233 170 250T171 268Q171 269 191 284T240 331T300 407T354 524T383 679Q384 691 384 925Q384 1152 385 1155L389 1159Z" transform="translate(0,0)"></path><svg width="889" height="1301" y="1060" x="0" viewBox="0 229.3 889 1301"><path data-c="23AA" d="M384 150V266Q384 304 389 309Q391 310 455 310Q496 310 498 309Q502 308 503 298Q504 283 504 150Q504 32 504 12T499 -9H498Q496 -10 444 -10T390 -9Q386 -8 385 2Q384 17 384 150Z" transform="scale(1,6.398)"></path></svg><svg width="889" height="1301" y="-1861" x="0" viewBox="0 229.3 889 1301"><path data-c="23AA" d="M384 150V266Q384 304 389 309Q391 310 455 310Q496 310 498 309Q502 308 503 298Q504 283 504 150Q504 32 504 12T499 -9H498Q496 -10 444 -10T390 -9Q386 -8 385 2Q384 17 384 150Z" transform="scale(1,6.398)"></path></svg></g><g data-mml-node="mtable" transform="translate(889,0)"><g data-mml-node="mtr" transform="translate(0,1710)"><g data-mml-node="mtd"><g data-mml-node="mstyle"><g data-mml-node="mfrac"><g data-mml-node="mn" transform="translate(220,676)"><path data-c="31" d="M213 578L200 573Q186 568 160 563T102 556H83V602H102Q149 604 189 617T245 641T273 663Q275 666 285 666Q294 666 302 660V361L303 61Q310 54 315 52T339 48T401 46H427V0H416Q395 3 257 3Q121 3 100 0H88V46H114Q136 46 152 46T177 47T193 50T201 52T207 57T213 61V578Z"></path></g><g data-mml-node="mn" transform="translate(220,-686)"><path data-c="32" d="M109 429Q82 429 66 447T50 491Q50 562 103 614T235 666Q326 666 387 610T449 465Q449 422 429 383T381 315T301 241Q265 210 201 149L142 93L218 92Q375 92 385 97Q392 99 409 186V189H449V186Q448 183 436 95T421 3V0H50V19V31Q50 38 56 46T86 81Q115 113 136 137Q145 147 170 174T204 211T233 244T261 278T284 308T305 340T320 369T333 401T340 431T343 464Q343 527 309 573T212 619Q179 619 154 602T119 569T109 550Q109 549 114 549Q132 549 151 535T170 489Q170 464 154 447T109 429Z"></path></g><rect width="700" height="60" x="120" y="220"></rect></g></g><g data-mml-node="mo" transform="translate(1162.2,0)"><path data-c="2212" d="M84 237T84 250T98 270H679Q694 262 694 250T679 230H98Q84 237 84 250Z"></path></g><g data-mml-node="mstyle" transform="translate(2162.4,0)"><g data-mml-node="mfrac"><g data-mml-node="mn" transform="translate(220,676)"><path data-c="31" d="M213 578L200 573Q186 568 160 563T102 556H83V602H102Q149 604 189 617T245 641T273 663Q275 666 285 666Q294 666 302 660V361L303 61Q310 54 315 52T339 48T401 46H427V0H416Q395 3 257 3Q121 3 100 0H88V46H114Q136 46 152 46T177 47T193 50T201 52T207 57T213 61V578Z"></path></g><g data-mml-node="mn" transform="translate(220,-686)"><path data-c="32" d="M109 429Q82 429 66 447T50 491Q50 562 103 614T235 666Q326 666 387 610T449 465Q449 422 429 383T381 315T301 241Q265 210 201 149L142 93L218 92Q375 92 385 97Q392 99 409 186V189H449V186Q448 183 436 95T421 3V0H50V19V31Q50 38 56 46T86 81Q115 113 136 137Q145 147 170 174T204 211T233 244T261 278T284 308T305 340T320 369T333 401T340 431T343 464Q343 527 309 573T212 619Q179 619 154 602T119 569T109 550Q109 549 114 549Q132 549 151 535T170 489Q170 464 154 447T109 429Z"></path></g><rect width="700" height="60" x="120" y="220"></rect></g></g><g data-mml-node="msub" transform="translate(3102.4,0)"><g data-mml-node="TeXAtom" data-mjx-texclass="ORD"><g data-mml-node="mi"><path data-c="55" d="M8 592Q8 616 70 649T193 683Q246 683 246 631Q246 587 205 492T124 297T83 143Q83 101 100 75T154 48Q202 48 287 135T450 342T560 553Q589 635 593 640Q603 656 626 668T669 683H670Q687 683 687 672T670 616T617 463T547 220Q525 137 521 68Q521 54 522 50T533 42L543 47Q573 61 588 61Q604 61 604 47Q599 16 506 -22Q486 -28 468 -28T436 -18T421 18Q421 92 468 258Q468 259 467 257T459 248Q426 206 391 167T303 81T194 6T83 -22Q66 -22 58 -20Q25 -11 4 19T-17 99Q-17 146 8 220T64 358T120 488T146 586Q146 604 141 608T123 613H120Q99 613 72 597T25 580Q8 580 8 592Z"></path></g></g><g data-mml-node="TeXAtom" transform="translate(659,-176.7) scale(0.707)" data-mjx-texclass="ORD"><g data-mml-node="msub"><g data-mml-node="mi"><path data-c="1D441" d="M234 637Q231 637 226 637Q201 637 196 638T191 649Q191 676 202 682Q204 683 299 683Q376 683 387 683T401 677Q612 181 616 168L670 381Q723 592 723 606Q723 633 659 637Q635 637 635 648Q635 650 637 660Q641 676 643 679T653 683Q656 683 684 682T767 680Q817 680 843 681T873 682Q888 682 888 672Q888 650 880 642Q878 637 858 637Q787 633 769 597L620 7Q618 0 599 0Q585 0 582 2Q579 5 453 305L326 604L261 344Q196 88 196 79Q201 46 268 46H278Q284 41 284 38T282 19Q278 6 272 0H259Q228 2 151 2Q123 2 100 2T63 2T46 1Q31 1 31 10Q31 14 34 26T39 40Q41 46 62 46Q130 49 150 85Q154 91 221 362L289 634Q287 635 234 637Z"></path></g><g data-mml-node="mi" transform="translate(836,-150) scale(0.707)"><path data-c="1D707" d="M58 -216Q44 -216 34 -208T23 -186Q23 -176 96 116T173 414Q186 442 219 442Q231 441 239 435T249 423T251 413Q251 401 220 279T187 142Q185 131 185 107V99Q185 26 252 26Q261 26 270 27T287 31T302 38T315 45T327 55T338 65T348 77T356 88T365 100L372 110L408 253Q444 395 448 404Q461 431 491 431Q504 431 512 424T523 412T525 402L449 84Q448 79 448 68Q448 43 455 35T476 26Q485 27 496 35Q517 55 537 131Q543 151 547 152Q549 153 557 153H561Q580 153 580 144Q580 138 575 117T555 63T523 13Q510 0 491 -8Q483 -10 467 -10Q446 -10 429 -4T402 11T385 29T376 44T374 51L368 45Q362 39 350 30T324 12T288 -4T246 -11Q199 -11 153 12L129 -85Q108 -167 104 -180T92 -202Q76 -216 58 -216Z"></path></g></g><g data-mml-node="TeXAtom" data-mjx-texclass="ORD" transform="translate(1312.4,0)"><g data-mml-node="mo"><path data-c="2F" d="M423 750Q432 750 438 744T444 730Q444 725 271 248T92 -240Q85 -250 75 -250Q68 -250 62 -245T56 -231Q56 -221 230 257T407 740Q411 750 423 750Z"></path></g></g><g data-mml-node="mn" transform="translate(1812.4,0)"><path data-c="32" d="M109 429Q82 429 66 447T50 491Q50 562 103 614T235 666Q326 666 387 610T449 465Q449 422 429 383T381 315T301 241Q265 210 201 149L142 93L218 92Q375 92 385 97Q392 99 409 186V189H449V186Q448 183 436 95T421 3V0H50V19V31Q50 38 56 46T86 81Q115 113 136 137Q145 147 170 174T204 211T233 244T261 278T284 308T305 340T320 369T333 401T340 431T343 464Q343 527 309 573T212 619Q179 619 154 602T119 569T109 550Q109 549 114 549Q132 549 151 535T170 489Q170 464 154 447T109 429Z"></path></g></g></g><g data-mml-node="mstyle" transform="translate(5446.5,0)"><g data-mml-node="mspace"></g></g><g data-mml-node="mrow" transform="translate(5446.2,0)"><g data-mml-node="mo" transform="translate(0 -0.5)"><path data-c="28" d="M701 -940Q701 -943 695 -949H664Q662 -947 636 -922T591 -879T537 -818T475 -737T412 -636T350 -511T295 -362T250 -186T221 17T209 251Q209 962 573 1361Q596 1386 616 1405T649 1437T664 1450H695Q701 1444 701 1441Q701 1436 681 1415T629 1356T557 1261T476 1118T400 927T340 675T308 359Q306 321 306 250Q306 -139 400 -430T690 -924Q701 -936 701 -940Z"></path></g><g data-mml-node="mstyle" transform="translate(736,0)"><g data-mml-node="mfrac"><g data-mml-node="mrow" transform="translate(220,710)"><g data-mml-node="msub"><g data-mml-node="mi"><path data-c="1D451" d="M366 683Q367 683 438 688T511 694Q523 694 523 686Q523 679 450 384T375 83T374 68Q374 26 402 26Q411 27 422 35Q443 55 463 131Q469 151 473 152Q475 153 483 153H487H491Q506 153 506 145Q506 140 503 129Q490 79 473 48T445 8T417 -8Q409 -10 393 -10Q359 -10 336 5T306 36L300 51Q299 52 296 50Q294 48 292 46Q233 -10 172 -10Q117 -10 75 30T33 157Q33 205 53 255T101 341Q148 398 195 420T280 442Q336 442 364 400Q369 394 369 396Q370 400 396 505T424 616Q424 629 417 632T378 637H357Q351 643 351 645T353 664Q358 683 366 683ZM352 326Q329 405 277 405Q242 405 210 374T160 293Q131 214 119 129Q119 126 119 118T118 106Q118 61 136 44T179 26Q233 26 290 98L298 109L352 326Z"></path></g><g data-mml-node="mi" transform="translate(553,-150) scale(0.707)"><path data-c="1D44F" d="M73 647Q73 657 77 670T89 683Q90 683 161 688T234 694Q246 694 246 685T212 542Q204 508 195 472T180 418L176 399Q176 396 182 402Q231 442 283 442Q345 442 383 396T422 280Q422 169 343 79T173 -11Q123 -11 82 27T40 150V159Q40 180 48 217T97 414Q147 611 147 623T109 637Q104 637 101 637H96Q86 637 83 637T76 640T73 647ZM336 325V331Q336 405 275 405Q258 405 240 397T207 376T181 352T163 330L157 322L136 236Q114 150 114 114Q114 66 138 42Q154 26 178 26Q211 26 245 58Q270 81 285 114T318 219Q336 291 336 325Z"></path></g></g><g data-mml-node="mo" transform="translate(1128.6,0)"><path data-c="2212" d="M84 237T84 250T98 270H679Q694 262 694 250T679 230H98Q84 237 84 250Z"></path></g><g data-mml-node="mo" transform="translate(2128.8,0)"><path data-c="28" d="M94 250Q94 319 104 381T127 488T164 576T202 643T244 695T277 729T302 750H315H319Q333 750 333 741Q333 738 316 720T275 667T226 581T184 443T167 250T184 58T225 -81T274 -167T316 -220T333 -241Q333 -250 318 -250H315H302L274 -226Q180 -141 137 -14T94 250Z"></path></g><g data-mml-node="mi" transform="translate(2517.8,0)"><path data-c="1D45F" d="M21 287Q22 290 23 295T28 317T38 348T53 381T73 411T99 433T132 442Q161 442 183 430T214 408T225 388Q227 382 228 382T236 389Q284 441 347 441H350Q398 441 422 400Q430 381 430 363Q430 333 417 315T391 292T366 288Q346 288 334 299T322 328Q322 376 378 392Q356 405 342 405Q286 405 239 331Q229 315 224 298T190 165Q156 25 151 16Q138 -11 108 -11Q95 -11 87 -5T76 7T74 17Q74 30 114 189T154 366Q154 405 128 405Q107 405 92 377T68 316T57 280Q55 278 41 278H27Q21 284 21 287Z"></path></g><g data-mml-node="mo" transform="translate(3191,0)"><path data-c="2212" d="M84 237T84 250T98 270H679Q694 262 694 250T679 230H98Q84 237 84 250Z"></path></g><g data-mml-node="msub" transform="translate(4191.2,0)"><g data-mml-node="mi"><path data-c="1D45F" d="M21 287Q22 290 23 295T28 317T38 348T53 381T73 411T99 433T132 442Q161 442 183 430T214 408T225 388Q227 382 228 382T236 389Q284 441 347 441H350Q398 441 422 400Q430 381 430 363Q430 333 417 315T391 292T366 288Q346 288 334 299T322 328Q322 376 378 392Q356 405 342 405Q286 405 239 331Q229 315 224 298T190 165Q156 25 151 16Q138 -11 108 -11Q95 -11 87 -5T76 7T74 17Q74 30 114 189T154 366Q154 405 128 405Q107 405 92 377T68 316T57 280Q55 278 41 278H27Q21 284 21 287Z"></path></g><g data-mml-node="mi" transform="translate(484,-150) scale(0.707)"><path data-c="1D44F" d="M73 647Q73 657 77 670T89 683Q90 683 161 688T234 694Q246 694 246 685T212 542Q204 508 195 472T180 418L176 399Q176 396 182 402Q231 442 283 442Q345 442 383 396T422 280Q422 169 343 79T173 -11Q123 -11 82 27T40 150V159Q40 180 48 217T97 414Q147 611 147 623T109 637Q104 637 101 637H96Q86 637 83 637T76 640T73 647ZM336 325V331Q336 405 275 405Q258 405 240 397T207 376T181 352T163 330L157 322L136 236Q114 150 114 114Q114 66 138 42Q154 26 178 26Q211 26 245 58Q270 81 285 114T318 219Q336 291 336 325Z"></path></g></g><g data-mml-node="mo" transform="translate(5028.6,0)"><path data-c="29" d="M60 749L64 750Q69 750 74 750H86L114 726Q208 641 251 514T294 250Q294 182 284 119T261 12T224 -76T186 -143T145 -194T113 -227T90 -246Q87 -249 86 -250H74Q66 -250 63 -250T58 -247T55 -238Q56 -237 66 -225Q221 -64 221 250T66 725Q56 737 55 738Q55 746 60 749Z"></path></g></g><g data-mml-node="mrow" transform="translate(414.7,-710)"><g data-mml-node="mi"><path data-c="1D70C" d="M58 -216Q25 -216 23 -186Q23 -176 73 26T127 234Q143 289 182 341Q252 427 341 441Q343 441 349 441T359 442Q432 442 471 394T510 276Q510 219 486 165T425 74T345 13T266 -10H255H248Q197 -10 165 35L160 41L133 -71Q108 -168 104 -181T92 -202Q76 -216 58 -216ZM424 322Q424 359 407 382T357 405Q322 405 287 376T231 300Q217 269 193 170L176 102Q193 26 260 26Q298 26 334 62Q367 92 389 158T418 266T424 322Z"></path></g><g data-mml-node="mo" transform="translate(739.2,0)"><path data-c="2212" d="M84 237T84 250T98 270H679Q694 262 694 250T679 230H98Q84 237 84 250Z"></path></g><g data-mml-node="mo" transform="translate(1739.4,0)"><path data-c="28" d="M94 250Q94 319 104 381T127 488T164 576T202 643T244 695T277 729T302 750H315H319Q333 750 333 741Q333 738 316 720T275 667T226 581T184 443T167 250T184 58T225 -81T274 -167T316 -220T333 -241Q333 -250 318 -250H315H302L274 -226Q180 -141 137 -14T94 250Z"></path></g><g data-mml-node="mi" transform="translate(2128.4,0)"><path data-c="1D45F" d="M21 287Q22 290 23 295T28 317T38 348T53 381T73 411T99 433T132 442Q161 442 183 430T214 408T225 388Q227 382 228 382T236 389Q284 441 347 441H350Q398 441 422 400Q430 381 430 363Q430 333 417 315T391 292T366 288Q346 288 334 299T322 328Q322 376 378 392Q356 405 342 405Q286 405 239 331Q229 315 224 298T190 165Q156 25 151 16Q138 -11 108 -11Q95 -11 87 -5T76 7T74 17Q74 30 114 189T154 366Q154 405 128 405Q107 405 92 377T68 316T57 280Q55 278 41 278H27Q21 284 21 287Z"></path></g><g data-mml-node="mo" transform="translate(2801.7,0)"><path data-c="2212" d="M84 237T84 250T98 270H679Q694 262 694 250T679 230H98Q84 237 84 250Z"></path></g><g data-mml-node="msub" transform="translate(3801.9,0)"><g data-mml-node="mi"><path data-c="1D45F" d="M21 287Q22 290 23 295T28 317T38 348T53 381T73 411T99 433T132 442Q161 442 183 430T214 408T225 388Q227 382 228 382T236 389Q284 441 347 441H350Q398 441 422 400Q430 381 430 363Q430 333 417 315T391 292T366 288Q346 288 334 299T322 328Q322 376 378 392Q356 405 342 405Q286 405 239 331Q229 315 224 298T190 165Q156 25 151 16Q138 -11 108 -11Q95 -11 87 -5T76 7T74 17Q74 30 114 189T154 366Q154 405 128 405Q107 405 92 377T68 316T57 280Q55 278 41 278H27Q21 284 21 287Z"></path></g><g data-mml-node="mi" transform="translate(484,-150) scale(0.707)"><path data-c="1D44F" d="M73 647Q73 657 77 670T89 683Q90 683 161 688T234 694Q246 694 246 685T212 542Q204 508 195 472T180 418L176 399Q176 396 182 402Q231 442 283 442Q345 442 383 396T422 280Q422 169 343 79T173 -11Q123 -11 82 27T40 150V159Q40 180 48 217T97 414Q147 611 147 623T109 637Q104 637 101 637H96Q86 637 83 637T76 640T73 647ZM336 325V331Q336 405 275 405Q258 405 240 397T207 376T181 352T163 330L157 322L136 236Q114 150 114 114Q114 66 138 42Q154 26 178 26Q211 26 245 58Q270 81 285 114T318 219Q336 291 336 325Z"></path></g></g><g data-mml-node="mo" transform="translate(4639.2,0)"><path data-c="29" d="M60 749L64 750Q69 750 74 750H86L114 726Q208 641 251 514T294 250Q294 182 284 119T261 12T224 -76T186 -143T145 -194T113 -227T90 -246Q87 -249 86 -250H74Q66 -250 63 -250T58 -247T55 -238Q56 -237 66 -225Q221 -64 221 250T66 725Q56 737 55 738Q55 746 60 749Z"></path></g></g><rect width="5617.6" height="60" x="120" y="220"></rect></g></g><g data-mml-node="mo" transform="translate(6593.6,0) translate(0 -0.5)"><path data-c="29" d="M34 1438Q34 1446 37 1448T50 1450H56H71Q73 1448 99 1423T144 1380T198 1319T260 1238T323 1137T385 1013T440 864T485 688T514 485T526 251Q526 134 519 53Q472 -519 162 -860Q139 -885 119 -904T86 -936T71 -949H56Q43 -949 39 -947T34 -937Q88 -883 140 -813Q428 -430 428 251Q428 453 402 628T338 922T245 1146T145 1309T46 1425Q44 1427 42 1429T39 1433T36 1436L34 1438Z"></path></g></g><g data-mml-node="mo" transform="translate(12775.8,0)"><path data-c="2C" d="M78 35T78 60T94 103T137 121Q165 121 187 96T210 8Q210 -27 201 -60T180 -117T154 -158T130 -185T117 -194Q113 -194 104 -185T95 -172Q95 -168 106 -156T131 -126T157 -76T173 -3V9L172 8Q170 7 167 6T161 3T152 1T140 0Q113 0 96 17Z"></path></g></g><g data-mml-node="mtd" transform="translate(15726.8,0)"><g data-mml-node="TeXAtom" data-mjx-texclass="ORD"><g data-mml-node="mi"><path data-c="67" d="M329 409Q373 453 429 453Q459 453 472 434T485 396Q485 382 476 371T449 360Q416 360 412 390Q410 404 415 411Q415 412 416 414V415Q388 412 363 393Q355 388 355 386Q355 385 359 381T368 369T379 351T388 325T392 292Q392 230 343 187T222 143Q172 143 123 171Q112 153 112 133Q112 98 138 81Q147 75 155 75T227 73Q311 72 335 67Q396 58 431 26Q470 -13 470 -72Q470 -139 392 -175Q332 -206 250 -206Q167 -206 107 -175Q29 -140 29 -75Q29 -39 50 -15T92 18L103 24Q67 55 67 108Q67 155 96 193Q52 237 52 292Q52 355 102 398T223 442Q274 442 318 416L329 409ZM299 343Q294 371 273 387T221 404Q192 404 171 388T145 343Q142 326 142 292Q142 248 149 227T179 192Q196 182 222 182Q244 182 260 189T283 207T294 227T299 242Q302 258 302 292T299 343ZM403 -75Q403 -50 389 -34T348 -11T299 -2T245 0H218Q151 0 138 -6Q118 -15 107 -34T95 -74Q95 -84 101 -97T122 -127T170 -155T250 -167Q319 -167 361 -139T403 -75Z"></path><path data-c="72" d="M36 46H50Q89 46 97 60V68Q97 77 97 91T98 122T98 161T98 203Q98 234 98 269T98 328L97 351Q94 370 83 376T38 385H20V408Q20 431 22 431L32 432Q42 433 60 434T96 436Q112 437 131 438T160 441T171 442H174V373Q213 441 271 441H277Q322 441 343 419T364 373Q364 352 351 337T313 322Q288 322 276 338T263 372Q263 381 265 388T270 400T273 405Q271 407 250 401Q234 393 226 386Q179 341 179 207V154Q179 141 179 127T179 101T180 81T180 66V61Q181 59 183 57T188 54T193 51T200 49T207 48T216 47T225 47T235 46T245 46H276V0H267Q249 3 140 3Q37 3 28 0H20V46H36Z" transform="translate(500,0)"></path><path data-c="6F" d="M28 214Q28 309 93 378T250 448Q340 448 405 380T471 215Q471 120 407 55T250 -10Q153 -10 91 57T28 214ZM250 30Q372 30 372 193V225V250Q372 272 371 288T364 326T348 362T317 390T268 410Q263 411 252 411Q222 411 195 399Q152 377 139 338T126 246V226Q126 130 145 91Q177 30 250 30Z" transform="translate(892,0)"></path><path data-c="75" d="M383 58Q327 -10 256 -10H249Q124 -10 105 89Q104 96 103 226Q102 335 102 348T96 369Q86 385 36 385H25V408Q25 431 27 431L38 432Q48 433 67 434T105 436Q122 437 142 438T172 441T184 442H187V261Q188 77 190 64Q193 49 204 40Q224 26 264 26Q290 26 311 35T343 58T363 90T375 120T379 144Q379 145 379 161T380 201T380 248V315Q380 361 370 372T320 385H302V431Q304 431 378 436T457 442H464V264Q464 84 465 81Q468 61 479 55T524 46H542V0Q540 0 467 -5T390 -11H383V58Z" transform="translate(1392,0)"></path><path data-c="6E" d="M41 46H55Q94 46 102 60V68Q102 77 102 91T102 122T103 161T103 203Q103 234 103 269T102 328V351Q99 370 88 376T43 385H25V408Q25 431 27 431L37 432Q47 433 65 434T102 436Q119 437 138 438T167 441T178 442H181V402Q181 364 182 364T187 369T199 384T218 402T247 421T285 437Q305 442 336 442Q450 438 463 329Q464 322 464 190V104Q464 66 466 59T477 49Q498 46 526 46H542V0H534L510 1Q487 2 460 2T422 3Q319 3 310 0H302V46H318Q379 46 379 62Q380 64 380 200Q379 335 378 343Q372 371 358 385T334 402T308 404Q263 404 229 370Q202 343 195 315T187 232V168V108Q187 78 188 68T191 55T200 49Q221 46 249 46H265V0H257L234 1Q210 2 183 2T145 3Q42 3 33 0H25V46H41Z" transform="translate(1948,0)"></path><path data-c="64" d="M376 495Q376 511 376 535T377 568Q377 613 367 624T316 637H298V660Q298 683 300 683L310 684Q320 685 339 686T376 688Q393 689 413 690T443 693T454 694H457V390Q457 84 458 81Q461 61 472 55T517 46H535V0Q533 0 459 -5T380 -11H373V44L365 37Q307 -11 235 -11Q158 -11 96 50T34 215Q34 315 97 378T244 442Q319 442 376 393V495ZM373 342Q328 405 260 405Q211 405 173 369Q146 341 139 305T131 211Q131 155 138 120T173 59Q203 26 251 26Q322 26 373 103V342Z" transform="translate(2504,0)"></path><path data-c="48" d="M128 622Q121 629 117 631T101 634T58 637H25V683H36Q57 680 180 680Q315 680 324 683H335V637H302Q262 636 251 634T233 622L232 500V378H517V622Q510 629 506 631T490 634T447 637H414V683H425Q446 680 569 680Q704 680 713 683H724V637H691Q651 636 640 634T622 622V61Q628 51 639 49T691 46H724V0H713Q692 3 569 3Q434 3 425 0H414V46H447Q489 47 498 49T517 61V332H232V197L233 61Q239 51 250 49T302 46H335V0H324Q303 3 180 3Q45 3 36 0H25V46H58Q100 47 109 49T128 61V622Z" transform="translate(3060,0)"></path><path data-c="69" d="M69 609Q69 637 87 653T131 669Q154 667 171 652T188 609Q188 579 171 564T129 549Q104 549 87 564T69 609ZM247 0Q232 3 143 3Q132 3 106 3T56 1L34 0H26V46H42Q70 46 91 49Q100 53 102 60T104 102V205V293Q104 345 102 359T88 378Q74 385 41 385H30V408Q30 431 32 431L42 432Q52 433 70 434T106 436Q123 437 142 438T171 441T182 442H185V62Q190 52 197 50T232 46H255V0H247Z" transform="translate(3810,0)"></path><path data-c="74" d="M27 422Q80 426 109 478T141 600V615H181V431H316V385H181V241Q182 116 182 100T189 68Q203 29 238 29Q282 29 292 100Q293 108 293 146V181H333V146V134Q333 57 291 17Q264 -10 221 -10Q187 -10 162 2T124 33T105 68T98 100Q97 107 97 248V385H18V422H27Z" transform="translate(4088,0)"></path></g></g><g data-mml-node="mo" transform="translate(4477,0)"><path data-c="2C" d="M78 35T78 60T94 103T137 121Q165 121 187 96T210 8Q210 -27 201 -60T180 -117T154 -158T130 -185T117 -194Q113 -194 104 -185T95 -172Q95 -168 106 -156T131 -126T157 -76T173 -3V9L172 8Q170 7 167 6T161 3T152 1T140 0Q113 0 96 17Z"></path></g></g></g><g data-mml-node="mtr" transform="translate(0,-1710)"><g data-mml-node="mtd"><g data-mml-node="mstyle"><g data-mml-node="mfrac"><g data-mml-node="mn" transform="translate(220,676)"><path data-c="31" d="M213 578L200 573Q186 568 160 563T102 556H83V602H102Q149 604 189 617T245 641T273 663Q275 666 285 666Q294 666 302 660V361L303 61Q310 54 315 52T339 48T401 46H427V0H416Q395 3 257 3Q121 3 100 0H88V46H114Q136 46 152 46T177 47T193 50T201 52T207 57T213 61V578Z"></path></g><g data-mml-node="mn" transform="translate(220,-686)"><path data-c="32" d="M109 429Q82 429 66 447T50 491Q50 562 103 614T235 666Q326 666 387 610T449 465Q449 422 429 383T381 315T301 241Q265 210 201 149L142 93L218 92Q375 92 385 97Q392 99 409 186V189H449V186Q448 183 436 95T421 3V0H50V19V31Q50 38 56 46T86 81Q115 113 136 137Q145 147 170 174T204 211T233 244T261 278T284 308T305 340T320 369T333 401T340 431T343 464Q343 527 309 573T212 619Q179 619 154 602T119 569T109 550Q109 549 114 549Q132 549 151 535T170 489Q170 464 154 447T109 429Z"></path></g><rect width="700" height="60" x="120" y="220"></rect></g></g><g data-mml-node="mo" transform="translate(1162.2,0)"><path data-c="2B" d="M56 237T56 250T70 270H369V420L370 570Q380 583 389 583Q402 583 409 568V270H707Q722 262 722 250T707 230H409V-68Q401 -82 391 -82H389H387Q375 -82 369 -68V230H70Q56 237 56 250Z"></path></g><g data-mml-node="mstyle" transform="translate(2162.4,0)"><g data-mml-node="mfrac"><g data-mml-node="mn" transform="translate(220,676)"><path data-c="31" d="M213 578L200 573Q186 568 160 563T102 556H83V602H102Q149 604 189 617T245 641T273 663Q275 666 285 666Q294 666 302 660V361L303 61Q310 54 315 52T339 48T401 46H427V0H416Q395 3 257 3Q121 3 100 0H88V46H114Q136 46 152 46T177 47T193 50T201 52T207 57T213 61V578Z"></path></g><g data-mml-node="mn" transform="translate(220,-686)"><path data-c="32" d="M109 429Q82 429 66 447T50 491Q50 562 103 614T235 666Q326 666 387 610T449 465Q449 422 429 383T381 315T301 241Q265 210 201 149L142 93L218 92Q375 92 385 97Q392 99 409 186V189H449V186Q448 183 436 95T421 3V0H50V19V31Q50 38 56 46T86 81Q115 113 136 137Q145 147 170 174T204 211T233 244T261 278T284 308T305 340T320 369T333 401T340 431T343 464Q343 527 309 573T212 619Q179 619 154 602T119 569T109 550Q109 549 114 549Q132 549 151 535T170 489Q170 464 154 447T109 429Z"></path></g><rect width="700" height="60" x="120" y="220"></rect></g></g><g data-mml-node="msub" transform="translate(3102.4,0)"><g data-mml-node="TeXAtom" data-mjx-texclass="ORD"><g data-mml-node="mi"><path data-c="55" d="M8 592Q8 616 70 649T193 683Q246 683 246 631Q246 587 205 492T124 297T83 143Q83 101 100 75T154 48Q202 48 287 135T450 342T560 553Q589 635 593 640Q603 656 626 668T669 683H670Q687 683 687 672T670 616T617 463T547 220Q525 137 521 68Q521 54 522 50T533 42L543 47Q573 61 588 61Q604 61 604 47Q599 16 506 -22Q486 -28 468 -28T436 -18T421 18Q421 92 468 258Q468 259 467 257T459 248Q426 206 391 167T303 81T194 6T83 -22Q66 -22 58 -20Q25 -11 4 19T-17 99Q-17 146 8 220T64 358T120 488T146 586Q146 604 141 608T123 613H120Q99 613 72 597T25 580Q8 580 8 592Z"></path></g></g><g data-mml-node="TeXAtom" transform="translate(659,-176.7) scale(0.707)" data-mjx-texclass="ORD"><g data-mml-node="msub"><g data-mml-node="mi"><path data-c="1D441" d="M234 637Q231 637 226 637Q201 637 196 638T191 649Q191 676 202 682Q204 683 299 683Q376 683 387 683T401 677Q612 181 616 168L670 381Q723 592 723 606Q723 633 659 637Q635 637 635 648Q635 650 637 660Q641 676 643 679T653 683Q656 683 684 682T767 680Q817 680 843 681T873 682Q888 682 888 672Q888 650 880 642Q878 637 858 637Q787 633 769 597L620 7Q618 0 599 0Q585 0 582 2Q579 5 453 305L326 604L261 344Q196 88 196 79Q201 46 268 46H278Q284 41 284 38T282 19Q278 6 272 0H259Q228 2 151 2Q123 2 100 2T63 2T46 1Q31 1 31 10Q31 14 34 26T39 40Q41 46 62 46Q130 49 150 85Q154 91 221 362L289 634Q287 635 234 637Z"></path></g><g data-mml-node="mi" transform="translate(836,-150) scale(0.707)"><path data-c="1D707" d="M58 -216Q44 -216 34 -208T23 -186Q23 -176 96 116T173 414Q186 442 219 442Q231 441 239 435T249 423T251 413Q251 401 220 279T187 142Q185 131 185 107V99Q185 26 252 26Q261 26 270 27T287 31T302 38T315 45T327 55T338 65T348 77T356 88T365 100L372 110L408 253Q444 395 448 404Q461 431 491 431Q504 431 512 424T523 412T525 402L449 84Q448 79 448 68Q448 43 455 35T476 26Q485 27 496 35Q517 55 537 131Q543 151 547 152Q549 153 557 153H561Q580 153 580 144Q580 138 575 117T555 63T523 13Q510 0 491 -8Q483 -10 467 -10Q446 -10 429 -4T402 11T385 29T376 44T374 51L368 45Q362 39 350 30T324 12T288 -4T246 -11Q199 -11 153 12L129 -85Q108 -167 104 -180T92 -202Q76 -216 58 -216Z"></path></g></g><g data-mml-node="TeXAtom" data-mjx-texclass="ORD" transform="translate(1312.4,0)"><g data-mml-node="mo"><path data-c="2F" d="M423 750Q432 750 438 744T444 730Q444 725 271 248T92 -240Q85 -250 75 -250Q68 -250 62 -245T56 -231Q56 -221 230 257T407 740Q411 750 423 750Z"></path></g></g><g data-mml-node="mn" transform="translate(1812.4,0)"><path data-c="32" d="M109 429Q82 429 66 447T50 491Q50 562 103 614T235 666Q326 666 387 610T449 465Q449 422 429 383T381 315T301 241Q265 210 201 149L142 93L218 92Q375 92 385 97Q392 99 409 186V189H449V186Q448 183 436 95T421 3V0H50V19V31Q50 38 56 46T86 81Q115 113 136 137Q145 147 170 174T204 211T233 244T261 278T284 308T305 340T320 369T333 401T340 431T343 464Q343 527 309 573T212 619Q179 619 154 602T119 569T109 550Q109 549 114 549Q132 549 151 535T170 489Q170 464 154 447T109 429Z"></path></g></g></g><g data-mml-node="mstyle" transform="translate(5446.5,0)"><g data-mml-node="mspace"></g></g><g data-mml-node="mrow" transform="translate(5446.2,0)"><g data-mml-node="mo" transform="translate(0 -0.5)"><path data-c="28" d="M701 -940Q701 -943 695 -949H664Q662 -947 636 -922T591 -879T537 -818T475 -737T412 -636T350 -511T295 -362T250 -186T221 17T209 251Q209 962 573 1361Q596 1386 616 1405T649 1437T664 1450H695Q701 1444 701 1441Q701 1436 681 1415T629 1356T557 1261T476 1118T400 927T340 675T308 359Q306 321 306 250Q306 -139 400 -430T690 -924Q701 -936 701 -940Z"></path></g><g data-mml-node="mstyle" transform="translate(736,0)"><g data-mml-node="mfrac"><g data-mml-node="mrow" transform="translate(1104.6,710)"><g data-mml-node="msub"><g data-mml-node="mi"><path data-c="1D451" d="M366 683Q367 683 438 688T511 694Q523 694 523 686Q523 679 450 384T375 83T374 68Q374 26 402 26Q411 27 422 35Q443 55 463 131Q469 151 473 152Q475 153 483 153H487H491Q506 153 506 145Q506 140 503 129Q490 79 473 48T445 8T417 -8Q409 -10 393 -10Q359 -10 336 5T306 36L300 51Q299 52 296 50Q294 48 292 46Q233 -10 172 -10Q117 -10 75 30T33 157Q33 205 53 255T101 341Q148 398 195 420T280 442Q336 442 364 400Q369 394 369 396Q370 400 396 505T424 616Q424 629 417 632T378 637H357Q351 643 351 645T353 664Q358 683 366 683ZM352 326Q329 405 277 405Q242 405 210 374T160 293Q131 214 119 129Q119 126 119 118T118 106Q118 61 136 44T179 26Q233 26 290 98L298 109L352 326Z"></path></g><g data-mml-node="mi" transform="translate(553,-150) scale(0.707)"><path data-c="1D461" d="M26 385Q19 392 19 395Q19 399 22 411T27 425Q29 430 36 430T87 431H140L159 511Q162 522 166 540T173 566T179 586T187 603T197 615T211 624T229 626Q247 625 254 615T261 596Q261 589 252 549T232 470L222 433Q222 431 272 431H323Q330 424 330 420Q330 398 317 385H210L174 240Q135 80 135 68Q135 26 162 26Q197 26 230 60T283 144Q285 150 288 151T303 153H307Q322 153 322 145Q322 142 319 133Q314 117 301 95T267 48T216 6T155 -11Q125 -11 98 4T59 56Q57 64 57 83V101L92 241Q127 382 128 383Q128 385 77 385H26Z"></path></g></g><g data-mml-node="mo" transform="translate(1080.5,0)"><path data-c="2212" d="M84 237T84 250T98 270H679Q694 262 694 250T679 230H98Q84 237 84 250Z"></path></g><g data-mml-node="mo" transform="translate(2080.7,0)"><path data-c="28" d="M94 250Q94 319 104 381T127 488T164 576T202 643T244 695T277 729T302 750H315H319Q333 750 333 741Q333 738 316 720T275 667T226 581T184 443T167 250T184 58T225 -81T274 -167T316 -220T333 -241Q333 -250 318 -250H315H302L274 -226Q180 -141 137 -14T94 250Z"></path></g><g data-mml-node="msub" transform="translate(2469.7,0)"><g data-mml-node="mi"><path data-c="1D45F" d="M21 287Q22 290 23 295T28 317T38 348T53 381T73 411T99 433T132 442Q161 442 183 430T214 408T225 388Q227 382 228 382T236 389Q284 441 347 441H350Q398 441 422 400Q430 381 430 363Q430 333 417 315T391 292T366 288Q346 288 334 299T322 328Q322 376 378 392Q356 405 342 405Q286 405 239 331Q229 315 224 298T190 165Q156 25 151 16Q138 -11 108 -11Q95 -11 87 -5T76 7T74 17Q74 30 114 189T154 366Q154 405 128 405Q107 405 92 377T68 316T57 280Q55 278 41 278H27Q21 284 21 287Z"></path></g><g data-mml-node="mi" transform="translate(484,-150) scale(0.707)"><path data-c="1D461" d="M26 385Q19 392 19 395Q19 399 22 411T27 425Q29 430 36 430T87 431H140L159 511Q162 522 166 540T173 566T179 586T187 603T197 615T211 624T229 626Q247 625 254 615T261 596Q261 589 252 549T232 470L222 433Q222 431 272 431H323Q330 424 330 420Q330 398 317 385H210L174 240Q135 80 135 68Q135 26 162 26Q197 26 230 60T283 144Q285 150 288 151T303 153H307Q322 153 322 145Q322 142 319 133Q314 117 301 95T267 48T216 6T155 -11Q125 -11 98 4T59 56Q57 64 57 83V101L92 241Q127 382 128 383Q128 385 77 385H26Z"></path></g></g><g data-mml-node="mo" transform="translate(3481.2,0)"><path data-c="2212" d="M84 237T84 250T98 270H679Q694 262 694 250T679 230H98Q84 237 84 250Z"></path></g><g data-mml-node="mi" transform="translate(4481.4,0)"><path data-c="1D45F" d="M21 287Q22 290 23 295T28 317T38 348T53 381T73 411T99 433T132 442Q161 442 183 430T214 408T225 388Q227 382 228 382T236 389Q284 441 347 441H350Q398 441 422 400Q430 381 430 363Q430 333 417 315T391 292T366 288Q346 288 334 299T322 328Q322 376 378 392Q356 405 342 405Q286 405 239 331Q229 315 224 298T190 165Q156 25 151 16Q138 -11 108 -11Q95 -11 87 -5T76 7T74 17Q74 30 114 189T154 366Q154 405 128 405Q107 405 92 377T68 316T57 280Q55 278 41 278H27Q21 284 21 287Z"></path></g><g data-mml-node="mo" transform="translate(4932.4,0)"><path data-c="29" d="M60 749L64 750Q69 750 74 750H86L114 726Q208 641 251 514T294 250Q294 182 284 119T261 12T224 -76T186 -143T145 -194T113 -227T90 -246Q87 -249 86 -250H74Q66 -250 63 -250T58 -247T55 -238Q56 -237 66 -225Q221 -64 221 250T66 725Q56 737 55 738Q55 746 60 749Z"></path></g></g><g data-mml-node="mrow" transform="translate(220,-710)"><g data-mml-node="mi"><path data-c="1D70C" d="M58 -216Q25 -216 23 -186Q23 -176 73 26T127 234Q143 289 182 341Q252 427 341 441Q343 441 349 441T359 442Q432 442 471 394T510 276Q510 219 486 165T425 74T345 13T266 -10H255H248Q197 -10 165 35L160 41L133 -71Q108 -168 104 -181T92 -202Q76 -216 58 -216ZM424 322Q424 359 407 382T357 405Q322 405 287 376T231 300Q217 269 193 170L176 102Q193 26 260 26Q298 26 334 62Q367 92 389 158T418 266T424 322Z"></path></g><g data-mml-node="mo" transform="translate(739.2,0)"><path data-c="2B" d="M56 237T56 250T70 270H369V420L370 570Q380 583 389 583Q402 583 409 568V270H707Q722 262 722 250T707 230H409V-68Q401 -82 391 -82H389H387Q375 -82 369 -68V230H70Q56 237 56 250Z"></path></g><g data-mml-node="mi" transform="translate(1739.4,0)"><path data-c="1D43B" d="M228 637Q194 637 192 641Q191 643 191 649Q191 673 202 682Q204 683 219 683Q260 681 355 681Q389 681 418 681T463 682T483 682Q499 682 499 672Q499 670 497 658Q492 641 487 638H485Q483 638 480 638T473 638T464 637T455 637Q416 636 405 634T387 623Q384 619 355 500Q348 474 340 442T328 395L324 380Q324 378 469 378H614L615 381Q615 384 646 504Q674 619 674 627T617 637Q594 637 587 639T580 648Q580 650 582 660Q586 677 588 679T604 682Q609 682 646 681T740 680Q802 680 835 681T871 682Q888 682 888 672Q888 645 876 638H874Q872 638 869 638T862 638T853 637T844 637Q805 636 794 634T776 623Q773 618 704 340T634 58Q634 51 638 51Q646 48 692 46H723Q729 38 729 37T726 19Q722 6 716 0H701Q664 2 567 2Q533 2 504 2T458 2T437 1Q420 1 420 10Q420 15 423 24Q428 43 433 45Q437 46 448 46H454Q481 46 514 49Q520 50 522 50T528 55T534 64T540 82T547 110T558 153Q565 181 569 198Q602 330 602 331T457 332H312L279 197Q245 63 245 58Q245 51 253 49T303 46H334Q340 38 340 37T337 19Q333 6 327 0H312Q275 2 178 2Q144 2 115 2T69 2T48 1Q31 1 31 10Q31 12 34 24Q39 43 44 45Q48 46 59 46H65Q92 46 125 49Q139 52 144 61Q147 65 216 339T285 628Q285 635 228 637Z"></path></g><g data-mml-node="mo" transform="translate(2849.7,0)"><path data-c="2212" d="M84 237T84 250T98 270H679Q694 262 694 250T679 230H98Q84 237 84 250Z"></path></g><g data-mml-node="mo" transform="translate(3849.9,0)"><path data-c="28" d="M94 250Q94 319 104 381T127 488T164 576T202 643T244 695T277 729T302 750H315H319Q333 750 333 741Q333 738 316 720T275 667T226 581T184 443T167 250T184 58T225 -81T274 -167T316 -220T333 -241Q333 -250 318 -250H315H302L274 -226Q180 -141 137 -14T94 250Z"></path></g><g data-mml-node="msub" transform="translate(4238.9,0)"><g data-mml-node="mi"><path data-c="1D45F" d="M21 287Q22 290 23 295T28 317T38 348T53 381T73 411T99 433T132 442Q161 442 183 430T214 408T225 388Q227 382 228 382T236 389Q284 441 347 441H350Q398 441 422 400Q430 381 430 363Q430 333 417 315T391 292T366 288Q346 288 334 299T322 328Q322 376 378 392Q356 405 342 405Q286 405 239 331Q229 315 224 298T190 165Q156 25 151 16Q138 -11 108 -11Q95 -11 87 -5T76 7T74 17Q74 30 114 189T154 366Q154 405 128 405Q107 405 92 377T68 316T57 280Q55 278 41 278H27Q21 284 21 287Z"></path></g><g data-mml-node="mi" transform="translate(484,-150) scale(0.707)"><path data-c="1D461" d="M26 385Q19 392 19 395Q19 399 22 411T27 425Q29 430 36 430T87 431H140L159 511Q162 522 166 540T173 566T179 586T187 603T197 615T211 624T229 626Q247 625 254 615T261 596Q261 589 252 549T232 470L222 433Q222 431 272 431H323Q330 424 330 420Q330 398 317 385H210L174 240Q135 80 135 68Q135 26 162 26Q197 26 230 60T283 144Q285 150 288 151T303 153H307Q322 153 322 145Q322 142 319 133Q314 117 301 95T267 48T216 6T155 -11Q125 -11 98 4T59 56Q57 64 57 83V101L92 241Q127 382 128 383Q128 385 77 385H26Z"></path></g></g><g data-mml-node="mo" transform="translate(5250.4,0)"><path data-c="2212" d="M84 237T84 250T98 270H679Q694 262 694 250T679 230H98Q84 237 84 250Z"></path></g><g data-mml-node="mi" transform="translate(6250.6,0)"><path data-c="1D45F" d="M21 287Q22 290 23 295T28 317T38 348T53 381T73 411T99 433T132 442Q161 442 183 430T214 408T225 388Q227 382 228 382T236 389Q284 441 347 441H350Q398 441 422 400Q430 381 430 363Q430 333 417 315T391 292T366 288Q346 288 334 299T322 328Q322 376 378 392Q356 405 342 405Q286 405 239 331Q229 315 224 298T190 165Q156 25 151 16Q138 -11 108 -11Q95 -11 87 -5T76 7T74 17Q74 30 114 189T154 366Q154 405 128 405Q107 405 92 377T68 316T57 280Q55 278 41 278H27Q21 284 21 287Z"></path></g><g data-mml-node="mo" transform="translate(6701.6,0)"><path data-c="29" d="M60 749L64 750Q69 750 74 750H86L114 726Q208 641 251 514T294 250Q294 182 284 119T261 12T224 -76T186 -143T145 -194T113 -227T90 -246Q87 -249 86 -250H74Q66 -250 63 -250T58 -247T55 -238Q56 -237 66 -225Q221 -64 221 250T66 725Q56 737 55 738Q55 746 60 749Z"></path></g></g><rect width="7290.6" height="60" x="120" y="220"></rect></g></g><g data-mml-node="mo" transform="translate(8266.6,0) translate(0 -0.5)"><path data-c="29" d="M34 1438Q34 1446 37 1448T50 1450H56H71Q73 1448 99 1423T144 1380T198 1319T260 1238T323 1137T385 1013T440 864T485 688T514 485T526 251Q526 134 519 53Q472 -519 162 -860Q139 -885 119 -904T86 -936T71 -949H56Q43 -949 39 -947T34 -937Q88 -883 140 -813Q428 -430 428 251Q428 453 402 628T338 922T245 1146T145 1309T46 1425Q44 1427 42 1429T39 1433T36 1436L34 1438Z"></path></g></g><g data-mml-node="mo" transform="translate(14448.8,0)"><path data-c="2C" d="M78 35T78 60T94 103T137 121Q165 121 187 96T210 8Q210 -27 201 -60T180 -117T154 -158T130 -185T117 -194Q113 -194 104 -185T95 -172Q95 -168 106 -156T131 -126T157 -76T173 -3V9L172 8Q170 7 167 6T161 3T152 1T140 0Q113 0 96 17Z"></path></g></g><g data-mml-node="mtd" transform="translate(15726.8,0)"><g data-mml-node="TeXAtom" data-mjx-texclass="ORD"><g data-mml-node="mi"><path data-c="6E" d="M41 46H55Q94 46 102 60V68Q102 77 102 91T102 122T103 161T103 203Q103 234 103 269T102 328V351Q99 370 88 376T43 385H25V408Q25 431 27 431L37 432Q47 433 65 434T102 436Q119 437 138 438T167 441T178 442H181V402Q181 364 182 364T187 369T199 384T218 402T247 421T285 437Q305 442 336 442Q450 438 463 329Q464 322 464 190V104Q464 66 466 59T477 49Q498 46 526 46H542V0H534L510 1Q487 2 460 2T422 3Q319 3 310 0H302V46H318Q379 46 379 62Q380 64 380 200Q379 335 378 343Q372 371 358 385T334 402T308 404Q263 404 229 370Q202 343 195 315T187 232V168V108Q187 78 188 68T191 55T200 49Q221 46 249 46H265V0H257L234 1Q210 2 183 2T145 3Q42 3 33 0H25V46H41Z"></path><path data-c="6F" d="M28 214Q28 309 93 378T250 448Q340 448 405 380T471 215Q471 120 407 55T250 -10Q153 -10 91 57T28 214ZM250 30Q372 30 372 193V225V250Q372 272 371 288T364 326T348 362T317 390T268 410Q263 411 252 411Q222 411 195 399Q152 377 139 338T126 246V226Q126 130 145 91Q177 30 250 30Z" transform="translate(556,0)"></path><path data-c="47" d="M56 342Q56 428 89 500T174 615T283 681T391 705Q394 705 400 705T408 704Q499 704 569 636L582 624L612 663Q639 700 643 704Q644 704 647 704T653 705H657Q660 705 666 699V419L660 413H626Q620 419 619 430Q610 512 571 572T476 651Q457 658 426 658Q401 658 376 654T316 633T254 592T205 519T177 411Q173 369 173 335Q173 259 192 201T238 111T302 58T370 31T431 24Q478 24 513 45T559 100Q562 110 562 160V212Q561 213 557 216T551 220T542 223T526 225T502 226T463 227H437V273H449L609 270Q715 270 727 273H735V227H721Q674 227 668 215Q666 211 666 108V6Q660 0 657 0Q653 0 639 10Q617 25 600 42L587 54Q571 27 524 3T406 -22Q317 -22 238 22T108 151T56 342Z" transform="translate(1056,0)"></path><path data-c="72" d="M36 46H50Q89 46 97 60V68Q97 77 97 91T98 122T98 161T98 203Q98 234 98 269T98 328L97 351Q94 370 83 376T38 385H20V408Q20 431 22 431L32 432Q42 433 60 434T96 436Q112 437 131 438T160 441T171 442H174V373Q213 441 271 441H277Q322 441 343 419T364 373Q364 352 351 337T313 322Q288 322 276 338T263 372Q263 381 265 388T270 400T273 405Q271 407 250 401Q234 393 226 386Q179 341 179 207V154Q179 141 179 127T179 101T180 81T180 66V61Q181 59 183 57T188 54T193 51T200 49T207 48T216 47T225 47T235 46T245 46H276V0H267Q249 3 140 3Q37 3 28 0H20V46H36Z" transform="translate(1841,0)"></path><path data-c="6F" d="M28 214Q28 309 93 378T250 448Q340 448 405 380T471 215Q471 120 407 55T250 -10Q153 -10 91 57T28 214ZM250 30Q372 30 372 193V225V250Q372 272 371 288T364 326T348 362T317 390T268 410Q263 411 252 411Q222 411 195 399Q152 377 139 338T126 246V226Q126 130 145 91Q177 30 250 30Z" transform="translate(2233,0)"></path><path data-c="75" d="M383 58Q327 -10 256 -10H249Q124 -10 105 89Q104 96 103 226Q102 335 102 348T96 369Q86 385 36 385H25V408Q25 431 27 431L38 432Q48 433 67 434T105 436Q122 437 142 438T172 441T184 442H187V261Q188 77 190 64Q193 49 204 40Q224 26 264 26Q290 26 311 35T343 58T363 90T375 120T379 144Q379 145 379 161T380 201T380 248V315Q380 361 370 372T320 385H302V431Q304 431 378 436T457 442H464V264Q464 84 465 81Q468 61 479 55T524 46H542V0Q540 0 467 -5T390 -11H383V58Z" transform="translate(2733,0)"></path><path data-c="6E" d="M41 46H55Q94 46 102 60V68Q102 77 102 91T102 122T103 161T103 203Q103 234 103 269T102 328V351Q99 370 88 376T43 385H25V408Q25 431 27 431L37 432Q47 433 65 434T102 436Q119 437 138 438T167 441T178 442H181V402Q181 364 182 364T187 369T199 384T218 402T247 421T285 437Q305 442 336 442Q450 438 463 329Q464 322 464 190V104Q464 66 466 59T477 49Q498 46 526 46H542V0H534L510 1Q487 2 460 2T422 3Q319 3 310 0H302V46H318Q379 46 379 62Q380 64 380 200Q379 335 378 343Q372 371 358 385T334 402T308 404Q263 404 229 370Q202 343 195 315T187 232V168V108Q187 78 188 68T191 55T200 49Q221 46 249 46H265V0H257L234 1Q210 2 183 2T145 3Q42 3 33 0H25V46H41Z" transform="translate(3289,0)"></path><path data-c="64" d="M376 495Q376 511 376 535T377 568Q377 613 367 624T316 637H298V660Q298 683 300 683L310 684Q320 685 339 686T376 688Q393 689 413 690T443 693T454 694H457V390Q457 84 458 81Q461 61 472 55T517 46H535V0Q533 0 459 -5T380 -11H373V44L365 37Q307 -11 235 -11Q158 -11 96 50T34 215Q34 315 97 378T244 442Q319 442 376 393V495ZM373 342Q328 405 260 405Q211 405 173 369Q146 341 139 305T131 211Q131 155 138 120T173 59Q203 26 251 26Q322 26 373 103V342Z" transform="translate(3845,0)"></path><path data-c="48" d="M128 622Q121 629 117 631T101 634T58 637H25V683H36Q57 680 180 680Q315 680 324 683H335V637H302Q262 636 251 634T233 622L232 500V378H517V622Q510 629 506 631T490 634T447 637H414V683H425Q446 680 569 680Q704 680 713 683H724V637H691Q651 636 640 634T622 622V61Q628 51 639 49T691 46H724V0H713Q692 3 569 3Q434 3 425 0H414V46H447Q489 47 498 49T517 61V332H232V197L233 61Q239 51 250 49T302 46H335V0H324Q303 3 180 3Q45 3 36 0H25V46H58Q100 47 109 49T128 61V622Z" transform="translate(4401,0)"></path><path data-c="69" d="M69 609Q69 637 87 653T131 669Q154 667 171 652T188 609Q188 579 171 564T129 549Q104 549 87 564T69 609ZM247 0Q232 3 143 3Q132 3 106 3T56 1L34 0H26V46H42Q70 46 91 49Q100 53 102 60T104 102V205V293Q104 345 102 359T88 378Q74 385 41 385H30V408Q30 431 32 431L42 432Q52 433 70 434T106 436Q123 437 142 438T171 441T182 442H185V62Q190 52 197 50T232 46H255V0H247Z" transform="translate(5151,0)"></path><path data-c="74" d="M27 422Q80 426 109 478T141 600V615H181V431H316V385H181V241Q182 116 182 100T189 68Q203 29 238 29Q282 29 292 100Q293 108 293 146V181H333V146V134Q333 57 291 17Q264 -10 221 -10Q187 -10 162 2T124 33T105 68T98 100Q97 107 97 248V385H18V422H27Z" transform="translate(5429,0)"></path></g></g><g data-mml-node="mo" transform="translate(5818,0)"><path data-c="2E" d="M78 60Q78 84 95 102T138 120Q162 120 180 104T199 61Q199 36 182 18T139 0T96 17T78 60Z"></path></g></g></g></g><g data-mml-node="mo" transform="translate(22711.8,0) translate(0 250)"></g></g></g></g></svg>