<?xml version="1.0" encoding="utf-8" standalone="no"?>
<!DOCTYPE svg PUBLIC "-//W3C//DTD SVG 1.1//EN"
  "http://www.w3.org/Graphics/SVG/1.1/DTD/svg11.dtd">
<svg xmlns:xlink="http://www.w3.org/1999/xlink" width="892.8pt" height="504pt" viewBox="0 0 892.8 504" xmlns="http://www.w3.org/2000/svg" version="1.1">
 <metadata>
  <rdf:RDF xmlns:dc="http://purl.org/dc/elements/1.1/" xmlns:cc="http://creativecommons.org/ns#" xmlns:rdf="http://www.w3.org/1999/02/22-rdf-syntax-ns#">
   <cc:Work>
    <dc:type rdf:resource="http://purl.org/dc/dcmitype/StillImage"/>
    <dc:date>2026-10-06T10:31:42.415180</dc:date>
    <dc:format>image/svg+xml</dc:format>
    <dc:creator>
     <cc:Agent>
      <dc:title>Matplotlib v3.11.2, https://matplotlib.org/</dc:title>
     </cc:Agent>
    </dc:creator>
   </cc:Work>
  </rdf:RDF>
 </metadata>
 <defs>
  <style type="text/css">*{stroke-linejoin: round; stroke-linecap: butt}</style>
 </defs>
 <g id="figure_1">
  <g id="patch_1">
   <path d="M 0 504 
L 892.8 504 
L 892.8 0 
L 0 0 
z
" style="fill: #ffffff"/>
  </g>
  <g id="axes_1">
   <g id="patch_2">
    <path d="M 59.179886 224.912 
L 218.806857 224.912 
Q 225.042286 224.912 225.042286 220.032 
L 225.042286 136.096 
Q 225.042286 131.216 218.806857 131.216 
L 59.179886 131.216 
Q 52.944457 131.216 52.944457 136.096 
L 52.944457 220.032 
Q 52.944457 224.912 59.179886 224.912 
z
" clip-path="url(#p2aacc1c843)" style="fill: #f3f7fb; stroke: #dce5ee; stroke-width: 1.1; stroke-linejoin: miter"/>
   </g>
   <g id="patch_3">
    <path d="M 256.842971 224.912 
L 416.469943 224.912 
Q 422.705371 224.912 422.705371 220.032 
L 422.705371 136.096 
Q 422.705371 131.216 416.469943 131.216 
L 256.842971 131.216 
Q 250.607543 131.216 250.607543 136.096 
L 250.607543 220.032 
Q 250.607543 224.912 256.842971 224.912 
z
" clip-path="url(#p2aacc1c843)" style="fill: #f3f7fb; stroke: #dce5ee; stroke-width: 1.1; stroke-linejoin: miter"/>
   </g>
   <g id="patch_4">
    <path d="M 454.506057 224.912 
L 614.133029 224.912 
Q 620.368457 224.912 620.368457 220.032 
L 620.368457 136.096 
Q 620.368457 131.216 614.133029 131.216 
L 454.506057 131.216 
Q 448.270629 131.216 448.270629 136.096 
L 448.270629 220.032 
Q 448.270629 224.912 454.506057 224.912 
z
" clip-path="url(#p2aacc1c843)" style="fill: #f3f7fb; stroke: #dce5ee; stroke-width: 1.1; stroke-linejoin: miter"/>
   </g>
   <g id="patch_5">
    <path d="M 652.169143 224.912 
L 811.796114 224.912 
Q 818.031543 224.912 818.031543 220.032 
L 818.031543 136.096 
Q 818.031543 131.216 811.796114 131.216 
L 652.169143 131.216 
Q 645.933714 131.216 645.933714 136.096 
L 645.933714 220.032 
Q 645.933714 224.912 652.169143 224.912 
z
" clip-path="url(#p2aacc1c843)" style="fill: #f3f7fb; stroke: #dce5ee; stroke-width: 1.1; stroke-linejoin: miter"/>
   </g>
   <g id="patch_6">
    <path d="M 59.179886 384.976 
L 408.987429 384.976 
Q 415.222857 384.976 415.222857 380.096 
L 415.222857 280.056 
Q 415.222857 275.176 408.987429 275.176 
L 59.179886 275.176 
Q 52.944457 275.176 52.944457 280.056 
L 52.944457 380.096 
Q 52.944457 384.976 59.179886 384.976 
z
" clip-path="url(#p2aacc1c843)" style="fill: #f3f7fb; stroke: #dce5ee; stroke-width: 1.1; stroke-linejoin: miter"/>
   </g>
   <g id="patch_7">
    <path d="M 457.623771 384.976 
L 807.431314 384.976 
Q 813.666743 384.976 813.666743 380.096 
L 813.666743 280.056 
Q 813.666743 275.176 807.431314 275.176 
L 457.623771 275.176 
Q 451.388343 275.176 451.388343 280.056 
L 451.388343 380.096 
Q 451.388343 384.976 457.623771 384.976 
z
" clip-path="url(#p2aacc1c843)" style="fill: #f3f7fb; stroke: #dce5ee; stroke-width: 1.1; stroke-linejoin: miter"/>
   </g>
   <g id="line2d_1">
    <path d="M 64.168229 213.688 
L 64.168229 142.44 
" clip-path="url(#p2aacc1c843)" style="fill: none; stroke: #286da8; stroke-width: 3; stroke-linecap: round"/>
   </g>
   <g id="line2d_2">
    <path d="M 261.831314 213.688 
L 261.831314 142.44 
" clip-path="url(#p2aacc1c843)" style="fill: none; stroke: #2297ad; stroke-width: 3; stroke-linecap: round"/>
   </g>
   <g id="line2d_3">
    <path d="M 459.4944 213.688 
L 459.4944 142.44 
" clip-path="url(#p2aacc1c843)" style="fill: none; stroke: #518772; stroke-width: 3; stroke-linecap: round"/>
   </g>
   <g id="line2d_4">
    <path d="M 657.157486 213.688 
L 657.157486 142.44 
" clip-path="url(#p2aacc1c843)" style="fill: none; stroke: #d68a31; stroke-width: 3; stroke-linecap: round"/>
   </g>
   <g id="line2d_5">
    <path d="M 64.168229 373.752 
L 64.168229 286.4 
" clip-path="url(#p2aacc1c843)" style="fill: none; stroke: #286da8; stroke-width: 3; stroke-linecap: round"/>
   </g>
   <g id="line2d_6">
    <path d="M 462.612114 373.752 
L 462.612114 286.4 
" clip-path="url(#p2aacc1c843)" style="fill: none; stroke: #518772; stroke-width: 3; stroke-linecap: round"/>
   </g>
   <g id="text_1">
    <!-- $L_\lambda$ -->
    <g style="fill: #286da8" transform="translate(76.639086 164.17476)">
     <text>
      <tspan x="0" y="-0.90625" style="font-style: italic; font-size: 17px; font-family: 'STIXGeneral'; fill: #286da8">L</tspan>
      <tspan x="9.451981" y="1.64375" style="font-style: italic; font-size: 11.9px; font-family: 'STIXGeneral'; fill: #286da8">λ</tspan>
     </text>
    </g>
   </g>
   <g id="text_2">
    <text style="font-size: 11.5px; font-family: 'Heiti TC'; text-anchor: start; fill: #20354b" x="76.639086" y="200.98575" transform="rotate(-0 76.639086 200.98575)">光谱辐亮度</text>
   </g>
   <g id="patch_8">
    <path d="M 231.408786 178.064 
Q 237.8244 178.064 242.562963 178.064 
" style="fill: none; stroke: #657b8e; stroke-width: 1.5; stroke-linecap: round"/>
    <path d="M 236.962963 175.264 
L 242.562963 178.064 
L 236.962963 180.864 
" style="fill: none; stroke: #657b8e; stroke-width: 1.5; stroke-linecap: round"/>
   </g>
   <g id="text_3">
    <text style="font-size: 17px; font-family: 'Heiti TC'; text-anchor: start; fill: #2297ad" x="274.302171" y="164.42976" transform="rotate(-0 274.302171 164.42976)">XYZ</text>
   </g>
   <g id="text_4">
    <text style="font-size: 11.5px; font-family: 'Heiti TC'; text-anchor: start; fill: #20354b" x="274.302171" y="200.97407" transform="rotate(-0 274.302171 200.97407)">CIE 色匹配积分</text>
   </g>
   <g id="patch_9">
    <path d="M 429.071872 178.064 
Q 435.487486 178.064 440.226049 178.064 
" style="fill: none; stroke: #657b8e; stroke-width: 1.5; stroke-linecap: round"/>
    <path d="M 434.626049 175.264 
L 440.226049 178.064 
L 434.626049 180.864 
" style="fill: none; stroke: #657b8e; stroke-width: 1.5; stroke-linecap: round"/>
   </g>
   <g id="text_5">
    <text style="font-size: 17px; font-family: 'Heiti TC'; text-anchor: start; fill: #518772" x="471.965257" y="164.42976" transform="rotate(-0 471.965257 164.42976)">线性 sRGB</text>
   </g>
   <g id="text_6">
    <text style="font-size: 11.5px; font-family: 'Heiti TC'; text-anchor: start; fill: #20354b" x="471.965257" y="201.08907" transform="rotate(-0 471.965257 201.08907)">XYZ → RGB 矩阵</text>
   </g>
   <g id="patch_10">
    <path d="M 626.734958 178.064 
Q 633.150571 178.064 637.889134 178.064 
" style="fill: none; stroke: #657b8e; stroke-width: 1.5; stroke-linecap: round"/>
    <path d="M 632.289134 175.264 
L 637.889134 178.064 
L 632.289134 180.864 
" style="fill: none; stroke: #657b8e; stroke-width: 1.5; stroke-linecap: round"/>
   </g>
   <g id="text_7">
    <text style="font-size: 17px; font-family: 'Heiti TC'; text-anchor: start; fill: #d68a31" x="669.628343" y="164.42976" transform="rotate(-0 669.628343 164.42976)">显示颜色</text>
   </g>
   <g id="text_8">
    <text style="font-size: 10.5px; font-family: 'Heiti TC'; text-anchor: start; fill: #20354b" x="669.628343" y="200.605984" transform="rotate(-0 669.628343 200.605984)">曝光 → 色调映射 → 编码</text>
   </g>
   <g id="text_9">
    <text style="font-size: 15px; font-family: 'Heiti TC'; text-anchor: start; fill: #286da8" x="76.639086" y="312.17888" transform="rotate(-0 76.639086 312.17888)">三波长模式</text>
   </g>
   <g id="text_10">
    <text style="font-size: 12px; font-family: 'Heiti TC'; fill: #20354b" transform="translate(76.639086 348.059785)">三个代表波长预计算</text>
    <text style="font-size: 12px; font-family: 'Heiti TC'; fill: #20354b" transform="translate(76.639086 364.81291)">运行时使用参考实现的颜色转换系数</text>
   </g>
   <g id="text_11">
    <text style="font-size: 15px; font-family: 'Heiti TC'; text-anchor: start; fill: #518772" x="475.082971" y="312.17888" transform="rotate(-0 475.082971 312.17888)">多波长模式</text>
   </g>
   <g id="text_12">
    <text style="font-size: 12px; font-family: 'Heiti TC'; fill: #20354b" transform="translate(475.082971 348.089785)">分组计算并积分到颜色通道</text>
    <text style="font-size: 12px; font-family: 'Heiti TC'; fill: #20354b" transform="translate(475.082971 364.79416)">运行时直接查询已转换的 LUT</text>
   </g>
  </g>
  <g id="line2d_7">
   <path d="M 53.568 83.664 
L 839.232 83.664 
" style="fill: none; stroke: #dce5ee; stroke-width: 1.2; stroke-linecap: round"/>
  </g>
  <g id="text_13">
   <text style="font-size: 21px; font-family: 'Heiti TC'; text-anchor: start; fill: #20354b" x="53.568" y="46.284" transform="rotate(-0 53.568 46.284)">16  从光谱辐亮度到最终显示颜色</text>
  </g>
  <g id="text_14">
   <text style="font-size: 12.5px; font-family: 'Heiti TC'; text-anchor: start; fill: #657b8e" x="53.568" y="73.246" transform="rotate(-0 53.568 73.246)">物理积分、色度转换与显示映射是不同步骤，单位和数据语义应逐步对应。</text>
  </g>
  <g id="text_15">
   <g id="patch_11">
    <path d="M 795.232 48.206 
L 839.232 48.206 
Q 844.182 48.206 844.182 43.256 
L 844.182 32.256 
Q 844.182 27.306 839.232 27.306 
L 795.232 27.306 
Q 790.282 27.306 790.282 32.256 
L 790.282 43.256 
Q 790.282 48.206 795.232 48.206 
z
" style="fill: #f3f7fb"/>
   </g>
   <text style="font-size: 11px; font-family: 'Heiti TC'; text-anchor: end; fill: #286da8" x="839.232" y="41.716" transform="rotate(-0 839.232 41.716)">颜色流程</text>
  </g>
  <g id="text_16">
   <text style="font-size: 11.5px; font-family: 'Heiti TC'; text-anchor: start; fill: #657b8e" x="53.568" y="478.702" transform="rotate(-0 53.568 478.702)">本图描述参考实现的颜色流程；GNXEngine 当前直接使用三波长通道，尚未完成此转换。</text>
  </g>
 </g>
 <defs>
  <clipPath id="p2aacc1c843">
   <rect x="53.568" y="105.84" width="785.664" height="307.44"/>
  </clipPath>
 </defs>
</svg>
